<?xml version="1.0" standalone="no"?><!DOCTYPE svg PUBLIC "-//W3C//DTD SVG 1.1//EN" "http://www.w3.org/Graphics/SVG/1.1/DTD/svg11.dtd"><svg t="1611566825384" class="icon" viewBox="0 0 1024 1024" version="1.1" xmlns="http://www.w3.org/2000/svg" p-id="3839" xmlns:xlink="http://www.w3.org/1999/xlink" width="64" height="64"><defs><style type="text/css"></style></defs><path d="M157.538462 0h590.76923a157.538462 157.538462 0 0 1 157.538462 157.538462v582.57723a157.538462 157.538462 0 0 1-157.538462 157.538462H157.538462a157.538462 157.538462 0 0 1-157.538462-157.538462V157.538462a157.538462 157.538462 0 0 1 157.538462-157.538462z m276.637538 338.865231h105.314462a51.278769 51.278769 0 0 0 0-102.557539H315.076923a39.384615 39.384615 0 0 0-39.384615 39.384616v224.413538a51.278769 51.278769 0 0 0 102.518154 0v-79.438769L590.769231 654.690462a44.110769 44.110769 0 0 0 65.220923 0.078769 53.169231 53.169231 0 0 0 0.078769-71.601231l-221.892923-244.302769zM857.403077 1023.921231H281.245538a38.4 38.4 0 0 1 0-76.8h576.196924a89.678769 89.678769 0 0 0 89.560615-89.560616V277.110154a38.4 38.4 0 1 1 76.8 0v580.450461a166.557538 166.557538 0 0 1-166.360615 166.360616z" p-id="3840"></path></svg>