<?xml version="1.0" encoding="UTF-8"?>
<svg width="126px" height="126px" viewBox="0 0 126 126" version="1.1" xmlns="http://www.w3.org/2000/svg" xmlns:xlink="http://www.w3.org/1999/xlink">
    <!-- Generator: Sketch 64 (93537) - https://sketch.com -->
    <title>状态提示/正确</title>
    <desc>Created with Sketch.</desc>
    <g id="页面-1" stroke="none" stroke-width="1" fill="none" fill-rule="evenodd">
        <g id="状态提示/正确" transform="translate(-4.000000, -5.000000)">
            <g transform="translate(9.000000, 10.000000)">
                <circle id="正确-2" stroke="#FFFFFF" stroke-width="10" fill="#00CF3F" fill-rule="nonzero" stroke-linejoin="round" cx="58" cy="58" r="58"></circle>
                <path d="M53.7672179,80.9888173 L53.7466245,80.9874917 C53.6065582,80.978218 53.4667649,80.9637875 53.3275483,80.9442003 C53.1183439,80.9147524 52.9107591,80.8737415 52.7054996,80.8211215 C52.636622,80.8034583 52.5685741,80.7846544 52.5008216,80.7645648 C52.0931689,80.643736 51.6956507,80.4760598 51.3171257,80.2617098 C51.0696401,80.121564 50.8302668,79.9614616 50.601323,79.7814053 C50.4161057,79.6357291 50.2378609,79.4771365 50.0676538,79.3055064 L28.6810071,57.741397 C27.2314888,56.2805115 26.6651887,54.151024 27.1954265,52.1550919 C27.7256643,50.1591599 29.2718843,48.6000127 31.2516404,48.0649662 C33.2313965,47.5299197 35.3439166,48.10026 36.7934349,49.5611456 L54.125,67.036 L86.2064435,34.6936963 C88.446658,32.4354346 92.0786568,32.4354346 94.3188713,34.6936963 C95.3952527,35.7782885 96,37.2496168 96,38.783822 C96,40.3180271 95.3952527,41.7893555 94.3188713,42.8739477 L58.1821662,79.3055064 L58.1821662,79.3055064 C58.0067077,79.4824318 57.8227079,79.6455028 57.6315044,79.794719 C57.4076834,79.969385 57.1740464,80.1250373 56.9326888,80.2617128 C56.5541692,80.4760598 56.156651,80.643736 55.7484107,80.7647372 C55.6812459,80.7846544 55.613198,80.8034583 55.5448926,80.8209766 C55.3390609,80.8737415 55.131476,80.9147524 54.9225917,80.9441539 C54.7830551,80.9637875 54.6432618,80.978218 54.5031955,80.9874917 C54.4173595,80.9931801 54.3310399,80.9969405 54.2446875,80.9987471 L54.0051325,80.9987471 C53.9257816,80.997087 53.8464584,80.9937771 53.7672179,80.9888173 Z" id="正确-3" fill="#FFFFFF"></path>
            </g>
        </g>
    </g>
</svg>